<svg height="885" viewBox="0 .1 112.4 39.9" width="2500" xmlns="http://www.w3.org/2000/svg"><path d="m91.6 8.1c-2.4 0-4.1-1.8-4.1-4 0-2.3 1.8-4 4.1-4 2.4 0 4.1 1.8 4.1 4 0 2.1-1.7 4-4.1 4m19.4 31.1h.8c.3 0 .6-.2.6-.6v-4.4c0-.3-.2-.6-.4-.7-3.1-1.2-4.1-3.1-4.1-7.7v-24.3c0-.3-.2-.6-.6-.6h-6c-.3 0-.6.2-.6.6v24.9c0 7.6 4.1 12.8 10.3 12.8m-71.1-.1h6c.3 0 .6-.2.6-.6v-14.3c0-2.6-.4-4.9-1.2-6.7 2.5-1 4.9-1.5 6.4-1.5 3.7 0 5.5 2.3 5.5 7.1v15.4c0 .3.2.6.6.6h6c.3 0 .6-.2.6-.6v-15.5c0-2.2-.4-4.1-1-5.8 2.3-.8 4.6-1.2 6.2-1.2 3.7 0 5.5 2.3 5.5 7.1v15.4c0 .3.2.6.6.6h6c.3 0 .6-.2.6-.6v-15.5c0-7.6-3.5-12.7-11-12.6-3.5.1-6.9.9-10.5 2.6-1.9-1.7-4.5-2.6-7.7-2.6-3.5 0-6.7 1.3-10.6 3-1.4-1-3.9-1.9-5.7-1.9h-.9c-.3 0-.6.2-.6.6v4.5c0 .3.2.6.4.7 3.1 1.2 4.1 3.1 4.1 7.7v13.7c-.4.1-.2.4.1.4m-25.3.9c4.5 0 7.9-2 10.4-4.6 2 2.2 4.6 3.7 8.4 3.7h.7c.3 0 .6-.2.6-.6v-4.2c0-.3-.2-.6-.4-.7-3.1-1.2-4.1-3.1-4.1-7.7v-14.1c0-.3-.2-.6-.6-.6h-5.9c-.3 0-.6.2-.6.6v1.9c-1.7-1.7-4.6-3.4-8.6-3.4-7.6 0-14.5 6.5-14.5 15 0 9.1 6.8 14.7 14.6 14.7m74-.9h6c.3 0 .6-.2.6-.6v-26.7c0-.3-.2-.6-.6-.6h-6c-.3 0-.6.2-.6.6v26.7c.1.3.3.6.6.6m-73.3-5.2c-5 0-8.7-4-8.7-8.7 0-4.8 3.7-8.7 8.7-8.7s8.6 3.9 8.6 8.7c0 4.7-3.7 8.7-8.6 8.7" fill="#461bff"/></svg>
