<svg xmlns="http://www.w3.org/2000/svg" width="2500" height="2500" viewBox="0 0 192.756 192.756"><g fill-rule="evenodd" clip-rule="evenodd"><path d="M86.631 28.259h19.494c19.123 0 34.75 13.988 34.75 31.177V75.73c0 17.189-15.627 31.251-34.75 31.251H86.631c-19.048 0-34.673-14.062-34.673-31.251V59.436c0-17.189 15.625-31.177 34.673-31.177zm.893 3.794c-17.188 0-31.251 12.649-31.251 28.201v14.807c0 15.476 14.063 28.126 31.251 28.126h17.634c17.262 0 31.4-12.65 31.4-28.126V60.254c0-15.552-14.139-28.201-31.4-28.201H87.524zM8.504 143.738h10.565v-9.821l3.944 9.821h1.86l3.944-9.821v9.821h11.161v-24.183H28.743l-4.763 9.079-4.836-9.079H8.504v24.183zM67.881 119.555H51.734l-9.301 24.184h11.534l1.637-4.315h8.259l1.414 4.315h11.385l-8.781-24.184zm-10.343 14.287l2.083-5.804 2.157 5.804h-4.24zM94.815 119.555H79.117v24.184h11.308v-9.524h5.657c4.836 0 8.928-1.934 8.928-6.696 0-3.945-3.199-7.964-10.195-7.964zm-4.39 10.492v-5.282c2.456 0 3.944.372 3.87 2.604-.075 2.306-1.637 2.827-3.87 2.678zM107.838 143.738h11.383v-9.524h9.82v-4.167h-9.82v-4.315h9.748v-6.177h-21.131v24.183zM158.062 143.738c-.447-4.763 1.041-9.821-3.053-11.683 1.936-1.265 2.977-3.049 2.977-5.281-.297-6.623-6.846-7.22-10.193-7.22h-16.146v24.184h11.459v-9.003c.893 0 6.547-1.638 5.357 9.003h9.599zm-14.957-14.584v-4.538c2.232-.149 3.498.521 3.498 2.306-.224 1.935-1.562 2.232-3.498 2.232zM184.252 140.762H173.91v-7.813h7.588v-3.05h-7.588v-6.995h10.342l-.148-3.349h-21.356v24.183h21.356l.148-2.976zM110.889 51.399c-3.051-4.092-8.633-5.952-14.436-5.952-5.655 0-11.162 1.86-14.137 5.952-5.654 0-15.105 8.184-15.105 17.263 0 3.794 3.572 9.748 10.045 9.748h17.039v12.35h4.465V78.409h17.188c6.324 0 10.045-5.953 10.045-9.748-.001-9.078-9.526-17.262-15.104-17.262zM75.47 73.572c-9.376-5.134 2.157-18.899 6.25-15.625l9.599 15.625H75.47zm21.056-.447v-.074l-.074-.074v.148L86.78 55.789c0-4.39 4.688-5.952 9.672-5.952h.074c5.062 0 9.747 1.562 9.747 5.952l-9.747 17.336zm21.132.373h-15.922l9.672-15.551c4.166-3.274 15.625 10.491 6.25 15.551z" fill="#c23c40"/></g></svg>
