<svg width="150" height="40" viewBox="0 0 150 40" fill="none" xmlns="http://www.w3.org/2000/svg">
<path d="M107.994 2.2947C121.828 -0.659704 139.333 8.04868 149.451 4.93085C150.104 4.72969 150.278 5.0632 149.294 5.46247C145.754 6.89805 139.717 6.61892 130.046 5.60425C110.064 3.50831 108.58 7.76816 97.9211 10.9401C89.5697 13.4297 84.7305 13.336 84.7305 13.336C84.7305 13.336 85.588 12.8793 86.0415 12.5954C86.0744 12.5743 98.9252 4.23248 107.994 2.2947Z" fill="#F05223"/>
<path d="M0.826495 5.49656C-0.235396 5.84894 7.11803 10.5391 25.1607 7.39217C37.0128 5.32537 51.8243 1.64985 62.252 9.97089C75.4668 20.5172 86.5253 12.2724 86.4716 12.3204C86.4716 12.3204 84.3716 12.9092 73.9042 12.0327C58.5513 10.7489 56.1851 -2.91771 40.3519 0.567197C33.1662 2.15372 30.4403 3.46805 25.2832 4.9791C11.1601 9.10577 4.42824 6.4907 1.00339 5.50933C0.933008 5.48713 0.851303 5.48879 0.826495 5.49656Z" fill="#F98900"/>
<path fill-rule="evenodd" clip-rule="evenodd" d="M0 32.2327L4.09117 32.2427C4.34734 33.6108 4.67011 34.0542 5.38361 34.5689C6.25702 35.2079 7.04144 35.4307 8.55392 35.4163C11.6797 35.3744 12.0594 33.6009 12.0527 32.951C12.0284 31.0632 9.86396 30.5137 7.38293 29.8838C4.10895 29.0527 0.283613 28.0816 0.0970749 23.7102C0.0167185 21.7833 0.829181 20.0475 2.14697 18.9304C3.46476 17.8528 4.97913 16.9424 7.52115 16.9149C9.90622 16.8833 11.7285 17.4044 13.1005 18.4002C14.7149 19.5711 15.9073 21.6509 16.006 23.6164L13.6555 23.6231C12.7098 23.6231 12.0575 23.2258 11.7493 22.508C11.581 22.1143 11.3065 21.6995 10.8894 21.3898C10.1915 20.8735 9.04064 20.5447 7.62415 20.5447C4.27965 20.5447 3.5222 23.7505 5.0843 24.7316C6.26726 25.4731 7.78686 25.8975 9.3246 26.3269C12.642 27.2534 16.0438 28.2034 16.3323 32.4119C16.4267 33.7604 15.8852 39.3618 8.64587 39.3618C5.98089 39.3618 4.1149 38.6756 2.77499 37.5527C1.30943 36.431 0.172847 34.5753 0 32.2327ZM70.8455 39.114H74.993V29.6118V28.7583C74.993 27.7839 75.233 27.0087 75.8152 26.5622C76.3984 26.1122 77.051 25.8925 77.7704 25.8925C78.4901 25.8925 79.1427 26.1122 79.724 26.5622C80.3065 27.0087 80.6449 27.7839 80.6449 28.7583V37.058C80.6449 37.6682 80.8391 38.1637 81.2201 38.5494C81.5997 38.9395 82.204 39.1226 82.8019 39.1226L84.8973 39.1257L84.8995 29.2986C84.8995 26.4529 83.6807 24.6775 82.2987 23.5923C80.9181 22.5072 79.4892 22.0022 77.7262 22.0022C74.3318 22.0022 73.0094 24.0615 73.0094 24.0615C73.0094 24.0615 71.8232 22.7427 70.5381 22.3426C69.6005 22.0521 68.8355 21.9603 67.913 21.9603C66.1913 22.0444 64.5369 22.604 63.2709 23.5923C61.931 24.6419 61.0476 26.5156 61.0476 29.2808L61.0541 39.1226L65.2628 39.1257L65.2529 28.7583C65.2529 27.7839 65.5783 26.9804 66.1395 26.5331C66.7022 26.0858 67.3419 25.8617 68.0637 25.8617C68.7853 25.8617 69.4368 26.0858 70.0176 26.5331C70.5971 26.9804 70.8436 27.7839 70.8436 28.7583V29.6118L70.8455 39.114ZM114.012 39.1187H118.295L118.3 22.3573H116.171C115.505 22.3573 114.986 22.4974 114.575 22.9153C114.167 23.3398 114.015 23.9111 114.015 24.4985L114.012 39.1187ZM90.1693 28.9219L97.5077 28.9377C97.5077 27.2338 96.1629 25.4253 93.9566 25.4253C91.7959 25.4253 90.339 27.0843 90.1693 28.9219ZM98.3662 33.9625L101.327 33.9675C100.867 35.7291 99.8922 37.1236 98.5987 38.0495C97.3453 38.9485 95.7509 39.3613 93.783 39.3613C91.509 39.3613 89.8482 38.464 88.4622 36.9491C87.0964 35.4522 86.4239 33.3255 86.4239 30.6724C86.4239 27.986 86.985 26.0338 88.3039 24.5394C89.657 23.0134 91.5448 21.9754 93.9283 21.9754C96.1332 21.9754 98.0489 22.7661 99.4049 24.3035C100.952 26.064 101.514 27.9361 101.564 30.8369C101.567 30.9824 101.55 31.4426 101.541 31.6591L101.538 31.7388L101.537 31.7731L90.1087 31.7664C90.2872 34.1212 91.835 35.7954 94.1338 35.7954C95.849 35.7954 96.3667 35.2805 96.9686 34.6819C97.0584 34.5926 97.1501 34.5014 97.248 34.4098C97.5007 34.1759 97.7808 33.9625 98.3662 33.9625ZM103.163 31.8244L103.168 39.1061L107.383 39.0994L107.398 29.6702C107.398 26.2621 112.142 26.627 112.142 26.627L112.151 22.3785C112.151 22.3788 112.142 22.3785 112.124 22.3779C111.649 22.3625 105.176 22.1526 103.527 27.418C103.064 28.882 103.139 31.1102 103.159 31.6939C103.161 31.7589 103.163 31.8035 103.163 31.8244ZM31.9653 31.5416V22.3652H30.1163C29.4077 22.3494 28.7678 22.5763 28.3881 22.9898C28.0065 23.4071 27.855 23.9287 27.855 24.5083L27.8671 32.2245C27.8671 34.627 26.1751 35.395 24.8581 35.395C23.5066 35.395 22.233 34.7172 22.233 32.2431L22.2252 22.3669L18.0103 22.3829L17.9973 31.8516C17.9973 36.3581 20.154 39.3078 25.0398 39.3078C30.0187 39.3078 31.9653 36.2535 31.9653 31.5416ZM33.9462 19.9405C33.9489 19.1631 34.1641 17.6945 35.9829 17.7011C36.0331 17.7022 38.2162 17.6995 38.2162 17.6995L38.2119 39.1352H33.9462V19.9405ZM49.591 23.0126L46.8545 30.8981L52.3115 30.9031L51.9369 29.8027L49.591 23.0126ZM46.5158 19.2164C46.9845 17.9559 47.8005 17.7095 48.9651 17.7095H52.1079L59.5565 39.127H55.1356L53.6115 34.6885L45.5354 34.6979L44.0005 39.1309H39.627C39.627 39.1309 46.3198 19.7811 46.5158 19.2164ZM142.634 36.0994C142.087 36.0994 141.126 35.8782 140.642 35.393C140.274 35.0189 140.063 34.4846 140.063 34.0101C140.063 33.5598 140.185 32.9688 140.541 32.5917C140.941 32.1653 141.353 32.0462 142.114 31.8789L143.536 31.6128C144.76 31.3817 145.456 31.2277 146.003 30.7699V32.4485C146.003 32.5388 146.005 32.6374 146.008 32.7423C146.037 33.9778 146.086 36.0994 142.634 36.0994ZM149.988 27.3413C149.988 25.8583 149.39 24.2124 148.191 23.3867C147.034 22.6087 145.601 21.9747 143.281 21.9747C141.214 21.9747 139.685 22.5859 138.465 23.5901C137.375 24.4852 136.825 25.4355 136.598 26.9152L140.655 26.9185C140.756 26.4679 141.269 25.4355 143.303 25.4355C144.241 25.4355 145.917 25.7554 145.917 27.0697C145.917 27.9332 144.984 28.4528 143.165 28.6984L141.412 28.9906C139.839 29.2336 138.9 29.5441 137.881 30.3815C136.91 31.1811 136.113 32.2557 136.113 33.9857C136.113 35.8411 136.906 37.2678 138.024 38.0693C139.14 38.8734 140.748 39.5169 143.968 39.2671C144.769 39.2042 145.741 38.9051 146.458 38.478L146.464 38.4878C146.597 38.7058 146.896 39.1944 147.533 39.1944H150L149.988 27.3413ZM95.5665 20.5934L98.4081 17.6731H95.5594C95.1965 17.6731 95.0441 17.7183 94.8346 17.8621C94.6999 17.9516 94.6192 18.0689 94.5003 18.2419C94.4567 18.3053 94.408 18.3763 94.3495 18.4561L92.7564 20.9227H94.6653C95.2968 20.9227 95.5665 20.5934 95.5665 20.5934ZM118.306 20.9602H114.032L114.035 19.7302C114.035 19.1675 114.238 18.682 114.646 18.2769C115.054 17.8734 115.54 17.6701 116.11 17.6701H118.307L118.306 20.9602ZM134.976 33.9409H132.436C131.348 33.9362 131.16 34.1263 130.763 34.528C130.634 34.6584 130.483 34.8111 130.273 34.9866C129.418 35.7013 128.549 35.7308 127.851 35.7308C124.038 35.7308 123.655 31.687 123.655 30.5284C123.655 26.1414 126.156 25.3923 127.904 25.3923C130.13 25.3923 130.702 26.8753 130.702 26.8753L134.662 26.8676C134.662 26.8676 134.19 25.2194 133.22 24.1693C131.831 22.6701 129.888 21.9118 127.705 21.9118C123.757 21.9118 119.993 25.1082 119.993 30.7154C119.993 34.4397 122.085 39.33 127.653 39.33C132.903 39.33 134.655 35.5904 134.976 33.9409Z" fill="#001D5F"/>
</svg>
