<?xml version="1.0" encoding="UTF-8"?>
<svg xmlns="http://www.w3.org/2000/svg" viewBox="0 0 200 66">
  <path d="M14.25,24.96L0,.37h14.19c2.81,0,4.59,1.08,5.89,3.43l11.03,20.41h.96L42.96.37h11.51l-22,47.14h-11.51l9.11-18.92c1.03-2.09.41-3.63-2.47-3.63h-13.37ZM66.19,13.37c13.71,0,18.43,9.63,16.99,19.6h-23.57c0,5.79,3.29,8.02,6.92,8.02,3.22,0,5.28-1.62,6.03-4.24h10.76c-1.51,7.74-8.36,11.65-16.79,11.65-12.47,0-18.23-7.34-18.23-17.44,0-10.91,6.79-17.58,17.88-17.58ZM72.15,28.33c0-4.99-1.98-7.68-6.23-7.68-3.91,0-6.31,2.83-6.31,7.68h12.54ZM88.87.37h10.96v47.14h-10.96V.37ZM117.1,14.25v19.6c0,4.31,1.99,6.26,5.48,6.26,3.97,0,5.89-2.76,5.89-7.21V14.25h10.96v33.27h-9.59v-8.76h-1.09c-1.37,6.33-4.66,9.63-10.62,9.63-7.68,0-11.99-4.71-11.99-13.67V14.25h10.97ZM155.74,14.25v8.82h1.09c1.3-6.06,4.32-9.7,10.42-9.7s9.59,4.11,9.59,9.7h1.09c1.3-5.99,4.11-9.7,10.83-9.7,7.13,0,10.55,4.58,10.55,12.26v21.89h-10.96v-20.14c0-3.43-1.44-5.72-4.66-5.72-3.77,0-5.48,3.16-5.48,7.07v18.79h-10.96v-20.14c0-3.43-1.44-5.72-4.66-5.72-3.77,0-5.48,3.16-5.48,7.07v18.79h-10.96V14.25h9.6Z" fill="#ffc900"/>
</svg>
